<svg width="21" height="9" viewBox="0 0 21 9" fill="none" xmlns="http://www.w3.org/2000/svg">
<path fill-rule="evenodd" clip-rule="evenodd" d="M2.77257 1.6108C3.16203 1.64384 3.55149 1.41255 3.79491 1.1193C4.03426 0.81779 4.19248 0.413025 4.15191 0C3.80708 0.0165209 3.3811 0.231294 3.13769 0.532802C2.91456 0.793008 2.72388 1.21429 2.77257 1.6108ZM7.40556 6.93057V0.49151H9.77885C11.004 0.49151 11.86 1.3506 11.86 2.6062C11.86 3.86179 10.9878 4.72914 9.74639 4.72914H8.38733V6.93057H7.40556ZM4.14783 1.68928C3.80472 1.66917 3.49165 1.79433 3.23877 1.89542C3.07604 1.96048 2.93823 2.01557 2.83339 2.01557C2.71574 2.01557 2.57225 1.95753 2.41114 1.89237C2.20003 1.80699 1.95868 1.70938 1.70558 1.71406C1.12544 1.72232 0.585871 2.05687 0.289717 2.58967C-0.318818 3.65528 0.131498 5.23303 0.719749 6.10038C1.00779 6.52993 1.35263 7.00078 1.807 6.98426C2.0069 6.97658 2.15069 6.91446 2.2995 6.85017C2.47083 6.77616 2.6488 6.69927 2.9267 6.69927C3.19497 6.69927 3.36516 6.77415 3.52854 6.84604C3.68388 6.91439 3.83306 6.98002 4.05452 6.976C4.52512 6.96774 4.82128 6.54645 5.10932 6.11691C5.42016 5.65589 5.55676 5.20596 5.57749 5.13768L5.57992 5.12978C5.57942 5.12927 5.5756 5.12749 5.56886 5.12435L5.56882 5.12433L5.5688 5.12432C5.46489 5.07589 4.67067 4.70572 4.66306 3.7131C4.65541 2.87994 5.29301 2.4578 5.39338 2.39135C5.39949 2.38731 5.40361 2.38458 5.40547 2.38316C4.99978 1.77188 4.3669 1.7058 4.14783 1.68928ZM13.6532 6.9801C14.2699 6.9801 14.8419 6.66207 15.1015 6.15818H15.1218V6.93053H16.0306V3.72546C16.0306 2.79615 15.3003 2.19727 14.1766 2.19727C13.1339 2.19727 12.3631 2.80442 12.3347 3.63873H13.2191C13.2922 3.24222 13.6532 2.98202 14.1482 2.98202C14.7486 2.98202 15.0853 3.267 15.0853 3.79154V4.14675L13.8601 4.22109C12.7201 4.2913 12.1035 4.76628 12.1035 5.59233C12.1035 6.42664 12.7404 6.9801 13.6532 6.9801ZM13.9169 6.21603C13.3935 6.21603 13.0609 5.95996 13.0609 5.56758C13.0609 5.16282 13.3814 4.9274 13.994 4.89022L15.0853 4.82001V5.18347C15.0853 5.78649 14.5822 6.21603 13.9169 6.21603ZM19.0448 7.18249C18.6513 8.31005 18.201 8.68177 17.2436 8.68177C17.1705 8.68177 16.9271 8.67351 16.8703 8.65699V7.88463C16.9312 7.89289 17.0813 7.90115 17.1584 7.90115C17.5924 7.90115 17.8359 7.71529 17.986 7.23205L18.0752 6.94707L16.4119 2.25923H17.4383L18.5945 6.06319H18.6148L19.771 2.25923H20.769L19.0448 7.18249ZM8.38724 1.33406H9.51912C10.3711 1.33406 10.8579 1.79665 10.8579 2.61031C10.8579 3.42397 10.3711 3.89069 9.51506 3.89069H8.38724V1.33406Z" fill="black"/>
</svg>
