<svg width="21" height="9" viewBox="0 0 21 9" fill="none" xmlns="http://www.w3.org/2000/svg">
<path fill-rule="evenodd" clip-rule="evenodd" d="M18.6426 5.51061H18.6572L19.8662 2.45885H20.7158L18.1035 8.57897H17.2969L18.2686 6.43737L16.5537 2.45885H17.4043L18.6426 5.51061ZM14.5527 2.3192C15.1307 2.3192 15.5877 2.47868 15.9229 2.79088C16.2577 3.10305 16.4228 3.53891 16.4229 4.08873V6.7108H15.6748V6.12096H15.6406C15.3153 6.60639 14.8876 6.84948 14.3486 6.84948C13.8923 6.84941 13.5041 6.70993 13.1982 6.43248C12.8972 6.17485 12.7267 5.79374 12.7363 5.39245C12.7363 4.95139 12.9021 4.60431 13.2275 4.34166C13.5528 4.07919 13.9895 3.95011 14.5332 3.95006C14.9994 3.95006 15.3786 4.03938 15.6797 4.20787V4.02428C15.6797 3.75176 15.5633 3.49367 15.3594 3.3153C15.1506 3.12706 14.8832 3.02332 14.6064 3.0233C14.1693 3.0233 13.8248 3.21211 13.5723 3.58873L12.8818 3.14733C13.2509 2.59731 13.8098 2.31926 14.5527 2.3192ZM10.8477 0.495961C11.3477 0.486163 11.8331 0.679426 12.1875 1.036C12.8965 1.70986 12.9404 2.84462 12.2754 3.57311L12.1875 3.66295C11.8234 4.01456 11.3767 4.19314 10.8477 4.19323H9.55566V6.7108H8.77344V0.495961H10.8477ZM14.6553 4.59459C14.3395 4.59459 14.0721 4.67339 13.8584 4.82702C13.6496 4.98063 13.543 5.1742 13.543 5.40709C13.543 5.61519 13.6405 5.80868 13.8008 5.9276C13.9755 6.06609 14.1889 6.14049 14.4072 6.13561C14.7375 6.13561 15.0539 6.00141 15.2871 5.76354C15.5443 5.51583 15.6758 5.22342 15.6758 4.88659C15.4329 4.68837 15.0924 4.58964 14.6553 4.59459ZM9.55566 3.42955H10.8672C11.1586 3.43941 11.4405 3.32033 11.6396 3.10729C12.0474 2.67614 12.0377 1.98244 11.6152 1.56627C11.4161 1.36809 11.1488 1.25968 10.8672 1.25963H9.55566V3.42955Z" fill="#3C4043"/>
<path d="M6.85209 3.64735C6.85209 3.40452 6.83266 3.1617 6.79381 2.92383H3.49609V4.29654H5.38536C5.30765 4.73759 5.0551 5.13404 4.68599 5.38182V6.27384H5.81275C6.47326 5.65438 6.85209 4.73759 6.85209 3.64735Z" fill="#4285F4"/>
<path d="M3.49787 7.13613C4.44007 7.13613 5.23658 6.81897 5.81453 6.27385L4.68777 5.38184C4.37208 5.59989 3.96897 5.72378 3.49787 5.72378C2.58481 5.72378 1.81259 5.09441 1.53576 4.25195H0.375V5.1737C0.96752 6.37792 2.17684 7.13613 3.49787 7.13613Z" fill="#34A853"/>
<path d="M1.53618 4.25232C1.39046 3.81127 1.39046 3.33057 1.53618 2.88457V1.96777H0.375241C-0.12508 2.97377 -0.12508 4.16312 0.375241 5.16911L1.53618 4.25232Z" fill="#FBBC04"/>
<path d="M3.49787 1.41257C3.99811 1.40266 4.47893 1.59593 4.83833 1.94778L5.83881 0.92692C5.20258 0.322332 4.36722 -0.0096956 3.49787 0.000215674C2.17684 0.000215674 0.96752 0.763384 0.375 1.9676L1.53576 2.88935C1.81259 2.04194 2.58481 1.41257 3.49787 1.41257Z" fill="#EA4335"/>
</svg>
