<svg width="19" height="12" viewBox="0 0 19 12" fill="none" xmlns="http://www.w3.org/2000/svg">
<g clip-path="url(#clip0_281_1362)">
<path d="M11.4241 1.41797H6.57031V10.1404H11.4241V1.41797Z" fill="#F16022"/>
<path d="M6.8797 5.77916C6.8797 4.00962 7.70822 2.43364 8.99842 1.41793C8.05485 0.675125 6.86429 0.231934 5.57026 0.231934C2.50684 0.231934 0.0234375 2.7155 0.0234375 5.77916C0.0234375 8.84277 2.50684 11.3264 5.57026 11.3264C6.86429 11.3264 8.05485 10.8832 8.99842 10.1404C7.70822 9.12463 6.8797 7.54869 6.8797 5.77916Z" fill="#E91D25"/>
<path d="M17.975 5.77916C17.975 8.84277 15.4916 11.3264 12.4282 11.3264C11.1341 11.3264 9.94357 10.8832 9 10.1404C10.2902 9.12463 11.1187 7.54869 11.1187 5.77916C11.1187 4.00962 10.2902 2.43364 9 1.41793C9.94357 0.675125 11.1341 0.231934 12.4282 0.231934C15.4916 0.231934 17.975 2.7155 17.975 5.77916ZM17.4457 9.21654V9.03797H17.5177V9.00159H17.3344V9.03797H17.4064V9.21654H17.4457ZM17.8018 9.21654V9.00124H17.7456L17.6809 9.14933L17.6162 9.00124H17.56V9.21654H17.5997V9.05413L17.6603 9.19416H17.7015L17.7621 9.05378V9.21654H17.8018Z" fill="#F69E1E"/>
</g>
<defs>
<clipPath id="clip0_281_1362">
<rect width="18.1346" height="11.5" fill="white"/>
</clipPath>
</defs>
</svg>
