<svg width="44" height="10" viewBox="0 0 44 10" fill="none" xmlns="http://www.w3.org/2000/svg">
<g clip-path="url(#clip0_281_1307)">
<path fill-rule="evenodd" clip-rule="evenodd" d="M29.3324 0H31.0208V9.4202H29.3324V0ZM43.0056 3.96877V2.50694H41.2597V0.601012H39.5714V7.54947C39.5714 8.18793 39.732 8.67448 40.0487 8.99567C40.3652 9.31713 40.8586 9.48008 41.515 9.48008H43.0056V8.01827H41.9149C41.6777 8.01827 41.5076 7.96611 41.409 7.86312C41.3185 7.76886 41.2597 7.53077 41.2597 7.2566V3.96877H43.0056ZM17.8635 7.58664L19.6092 2.50674H21.383L18.8629 9.42029H16.8641L14.3439 2.50674H16.1177L17.8635 7.58664ZM36.8193 5.97013C36.8193 6.40781 36.7528 6.78858 36.6222 7.10184C36.4925 7.41341 36.3066 7.65228 36.0697 7.81161C35.8328 7.97095 35.5416 8.05175 35.204 8.05175C34.7213 8.05175 34.357 7.8931 34.1216 7.58038C33.8835 7.26432 33.7627 6.78532 33.7627 6.15674V2.50693H32.0744V6.34336C32.0744 6.94073 32.1489 7.44741 32.2964 7.84914C32.444 8.25209 32.6468 8.57987 32.8988 8.82318C33.1508 9.06624 33.445 9.24178 33.7734 9.34512C34.1 9.44793 34.4515 9.5 34.8178 9.5C35.3456 9.5 35.7826 9.40426 36.116 9.21542C36.42 9.04266 36.675 8.8407 36.8745 8.61421L37.0257 9.42017H38.5077V2.50693H36.8193V5.97013ZM26.7514 2.87151C26.2193 2.5765 25.5875 2.42704 24.8737 2.42704C24.1687 2.42704 23.5392 2.5765 23.0027 2.87141C22.4656 3.16709 22.0435 3.58465 21.7483 4.11246C21.4534 4.6398 21.304 5.26484 21.304 5.97013C21.304 6.66677 21.4534 7.28745 21.7483 7.81479C22.0434 8.34243 22.4655 8.75989 23.0027 9.05552C23.5392 9.35046 24.1687 9.49991 24.8737 9.49991C25.5875 9.49991 26.2193 9.35046 26.7514 9.05543C27.2841 8.75995 27.7038 8.34251 27.9991 7.81479C28.294 7.28715 28.4435 6.66648 28.4435 5.97013C28.4435 5.26511 28.294 4.64007 27.9991 4.11243C27.7037 3.58456 27.284 3.16697 26.7514 2.87151ZM25.8594 7.81123C25.5874 7.98834 25.2558 8.07821 24.8738 8.07821C24.5006 8.07821 24.1711 7.98837 23.8945 7.81117C23.6175 7.63375 23.4002 7.38337 23.2486 7.06684C23.0964 6.75002 23.0191 6.38109 23.0191 5.97013C23.0191 5.5507 23.0963 5.17964 23.2486 4.86712C23.4001 4.55486 23.6176 4.30439 23.8949 4.12253C24.1714 3.94084 24.5007 3.84875 24.8738 3.84875C25.2556 3.84875 25.587 3.94084 25.8591 4.12232C26.1319 4.3043 26.3472 4.55486 26.4991 4.86721C26.6513 5.18047 26.7285 5.55156 26.7285 5.97016C26.7285 6.38017 26.6513 6.74922 26.4991 7.06684C26.3473 7.38343 26.1321 7.63384 25.8594 7.81123ZM1.75469 2.32487H0V9.42029H1.75469V2.32487ZM7.25735 2.73061C7.25735 1.22502 6.03131 0.000101923 4.52423 0.000101923H0V1.51537H4.30911C4.99115 1.51537 5.5561 2.0512 5.5686 2.70975C5.57484 3.0395 5.45107 3.35071 5.22013 3.58604C4.9891 3.82143 4.68041 3.95117 4.35094 3.95117H2.67231C2.61271 3.95117 2.56421 3.99959 2.56421 4.0592V5.40592C2.56421 5.42883 2.57128 5.45071 2.58459 5.46915L5.43263 9.42032H7.51744L4.66278 5.45834C6.1004 5.38617 7.25735 4.17828 7.25735 2.73061ZM12.6529 2.83128C12.1474 2.563 11.5473 2.42704 10.8691 2.42704C10.19 2.42704 9.58286 2.57659 9.06446 2.8717C8.54519 3.16709 8.13669 3.58474 7.85032 4.11282C7.56426 4.63971 7.41926 5.26912 7.41926 5.98363C7.41926 6.68001 7.56648 7.30048 7.85703 7.82791C8.14821 8.35656 8.5682 8.77188 9.10513 9.06232C9.64105 9.35278 10.2839 9.5 11.0156 9.5C11.5961 9.5 12.1175 9.39125 12.5651 9.17658C13.0128 8.96138 13.3783 8.66833 13.6515 8.30552C13.9111 7.9607 14.0862 7.5707 14.1718 7.14646L14.181 7.10119H12.5019L12.494 7.12838C12.4016 7.44482 12.2222 7.69485 11.9607 7.8717C11.68 8.06185 11.3353 8.1583 10.9359 8.1583C10.5974 8.1583 10.2917 8.08578 10.0273 7.94274C9.76425 7.80054 9.55854 7.59718 9.41607 7.3381C9.27304 7.07812 9.19164 6.76531 9.17424 6.41024V6.35473H14.2461L14.2518 6.32373C14.2695 6.22642 14.2808 6.12613 14.2858 6.02529C14.29 5.92702 14.2924 5.82887 14.2924 5.72981C14.2833 5.05997 14.1336 4.47079 13.8475 3.97845C13.5602 3.48555 13.1583 3.09955 12.6529 2.83128ZM12.0377 4.13321C12.3261 4.376 12.5056 4.72099 12.5714 5.15933H9.23254C9.27069 4.87492 9.36513 4.62861 9.51348 4.42655C9.6691 4.21462 9.86845 4.0481 10.1061 3.9316C10.344 3.81475 10.6052 3.75544 10.8824 3.75544C11.3509 3.75541 11.7396 3.88253 12.0377 4.13321Z" fill="#1A1C1F"/>
</g>
<defs>
<clipPath id="clip0_281_1307">
<rect width="43.0469" height="9.5" fill="white"/>
</clipPath>
</defs>
</svg>
