<svg width="21" height="7" viewBox="0 0 21 7" fill="none" xmlns="http://www.w3.org/2000/svg">
<path fill-rule="evenodd" clip-rule="evenodd" d="M5.07521 6.46521H3.31838L2.00096 1.41031C1.93843 1.17779 1.80566 0.972221 1.61036 0.875336C1.12297 0.631858 0.585898 0.438087 9.5366e-08 0.340359V0.145746H2.83013C3.22073 0.145746 3.51368 0.438087 3.5625 0.777608L4.24605 4.42387L6.00203 0.145746H7.71004L5.07521 6.46521ZM8.68655 6.46521H7.02736L8.3936 0.145746H10.0528L8.68655 6.46521ZM12.1994 1.89643C12.2482 1.55606 12.5411 1.36145 12.8829 1.36145C13.42 1.31259 14.005 1.41032 14.4933 1.65295L14.7862 0.292341C14.298 0.0977278 13.7609 -1.58946e-07 13.2735 -1.58946e-07C11.6631 -1.58946e-07 10.4914 0.875339 10.4914 2.0902C10.4914 3.0144 11.3214 3.49967 11.9073 3.79201C12.5411 4.08351 12.7853 4.27813 12.7364 4.56962C12.7364 5.00687 12.2482 5.20149 11.7608 5.20149C11.1749 5.20149 10.589 5.05574 10.0528 4.81226L9.75983 6.17371C10.3457 6.41635 10.9796 6.51407 11.5655 6.51407C13.3712 6.5621 14.4933 5.6876 14.4933 4.37501C14.4933 2.72206 12.1994 2.62517 12.1994 1.89643ZM20.3 6.46521L18.9826 0.145746H17.5675C17.2746 0.145746 16.9816 0.340359 16.884 0.631858L14.4444 6.46521H16.1525L16.4934 5.54185H18.592L18.7873 6.46521H20.3ZM17.8116 1.84757L18.299 4.22927H16.9328L17.8116 1.84757Z" fill="#172B85"/>
</svg>
