<svg width="153" height="46" viewBox="0 0 153 46" fill="none" xmlns="http://www.w3.org/2000/svg">
<mask id="mask0_281_3149" style="mask-type:luminance" maskUnits="userSpaceOnUse" x="0" y="0" width="152" height="46">
<path d="M151.993 0H0V45.678H151.993V0Z" fill="white"/>
</mask>
<g mask="url(#mask0_281_3149)">
<path d="M72.0078 16.5227V44.7943H79.9198V13.6523L72.0078 16.5227Z" fill="#AED000"/>
<path d="M109.608 2.8704V17.2316H109.562C108.246 15.0328 104.465 12.7696 98.807 12.7696C91.2722 12.7696 84.7402 18.5472 84.7402 28.7224V29.7252C84.7402 39.9004 91.3366 45.678 98.807 45.678C104.456 45.678 108.237 43.4148 109.681 41.032H109.727V44.7948H117.511V0L109.599 2.8704H109.608ZM109.737 29.532C109.737 35.558 106.029 38.7596 101.199 38.7596C96.369 38.7596 92.6614 35.558 92.6614 29.532V28.9064C92.6614 22.8804 96.3046 19.6788 101.199 19.6788C106.093 19.6788 109.737 22.8804 109.737 28.9064V29.532Z" fill="#AED000"/>
<path d="M151.993 28.8507C151.993 19.3011 146.031 12.7783 136.859 12.7783C127.686 12.7783 121.283 19.0527 121.283 28.8507V29.6051C121.283 39.4031 127.622 45.6775 136.978 45.6775C145.516 45.6775 149.224 40.8475 150.981 37.5171L144.513 34.1223C143.446 36.5051 141.624 38.7683 137.227 38.7683C132.829 38.7683 129.499 35.8151 129.315 31.5463H151.984V28.8507H151.993ZM129.388 25.6491C129.95 22.0703 132.526 19.6875 136.804 19.6875C141.082 19.6875 143.584 22.0703 143.961 25.6491H129.388Z" fill="#AED000"/>
<path d="M70.4727 4.19531H72.5611C76.6275 4.19531 79.9211 7.49811 79.9211 11.5553V13.6437H77.8327C73.7663 13.6437 70.4727 10.3409 70.4727 6.28371V4.19531Z" fill="#AED000"/>
<path d="M67.8221 18.0414L67.6105 18.7038L66.8837 20.9854L59.2937 44.795H46.7357L42.0253 30.0106L36.8457 13.7542L45.2453 13.7266L48.6309 25.5946L49.1461 27.4254L52.4489 39.0266H53.5805L57.7757 24.2974L58.4105 22.0434L58.6037 21.3902L67.8221 18.0414Z" fill="#AED000"/>
<path d="M5.7224 24.4905C5.1888 24.1685 4.5724 24.0029 3.8732 24.0029C3.174 24.0029 2.5024 24.1777 1.9136 24.5181C1.3248 24.8585 0.8556 25.3277 0.5152 25.9165C0.1748 26.5053 0 27.1677 0 27.9037C0 28.6397 0.1748 29.3113 0.5244 29.9001C0.874 30.4889 1.3432 30.9581 1.9412 31.2985C2.5392 31.6389 3.2108 31.8045 3.9652 31.8045C4.5448 31.8045 5.0968 31.6941 5.6212 31.4733C6.1456 31.2525 6.5872 30.9305 6.946 30.5073L5.8512 29.4033C5.6212 29.6609 5.3452 29.8633 5.014 29.9921C4.6828 30.1301 4.3332 30.1945 3.9468 30.1945C3.496 30.1945 3.1004 30.1025 2.76 29.9093C2.4196 29.7161 2.1528 29.4401 1.9596 29.0905C1.8676 28.9249 1.8032 28.7409 1.7572 28.5477H7.3416C7.3692 28.3913 7.3968 28.2533 7.4152 28.1153C7.4336 27.9865 7.4428 27.8577 7.4428 27.7289C7.4428 27.0113 7.2864 26.3673 6.9828 25.8061C6.6792 25.2449 6.256 24.8033 5.7224 24.4813V24.4905ZM1.9504 26.6525C2.1252 26.3121 2.3736 26.0545 2.6956 25.8613C3.0176 25.6773 3.3948 25.5761 3.8364 25.5761C4.278 25.5761 4.6 25.6589 4.8944 25.8245C5.1796 25.9901 5.4004 26.2293 5.5568 26.5421C5.6396 26.7169 5.704 26.9193 5.75 27.1309H1.7664C1.8124 26.9561 1.8676 26.7905 1.9504 26.6433V26.6525Z" fill="#AED000"/>
<path d="M10.9388 25.9535C11.27 25.7603 11.6472 25.6683 12.0704 25.6683C12.4384 25.6683 12.7696 25.7327 13.0732 25.8615C13.3768 25.9903 13.6436 26.1835 13.8644 26.4503L14.9868 25.3095C14.6372 24.8955 14.2048 24.5735 13.6988 24.3527C13.1928 24.1319 12.65 24.0215 12.0704 24.0215C11.3344 24.0215 10.6628 24.1963 10.0648 24.5367C9.46681 24.8771 8.99761 25.3463 8.64801 25.9351C8.29841 26.5239 8.13281 27.1863 8.13281 27.9223C8.13281 28.6583 8.30761 29.3115 8.64801 29.9003C8.98841 30.4891 9.45761 30.9583 10.0648 31.3079C10.6628 31.6483 11.3344 31.8231 12.0704 31.8231C12.65 31.8231 13.1928 31.7127 13.6988 31.4919C14.2048 31.2711 14.628 30.9491 14.9868 30.5351L13.8644 29.3943C13.6436 29.6519 13.386 29.8543 13.0732 29.9831C12.7696 30.1119 12.4292 30.1763 12.0704 30.1763C11.6472 30.1763 11.27 30.0843 10.9388 29.8911C10.6076 29.6979 10.3592 29.4311 10.1752 29.0907C9.99121 28.7503 9.89921 28.3639 9.89921 27.9315C9.89921 27.4991 9.99121 27.0943 10.1752 26.7631C10.3592 26.4319 10.6076 26.1651 10.9388 25.9719V25.9535Z" fill="#AED000"/>
<path d="M21.3355 24.5269C20.7467 24.1865 20.0751 24.0117 19.3391 24.0117C18.6031 24.0117 17.9499 24.1865 17.3611 24.5361C16.7723 24.8857 16.2939 25.3549 15.9443 25.9345C15.5947 26.5141 15.4199 27.1765 15.4199 27.9033C15.4199 28.6301 15.5947 29.2925 15.9443 29.8813C16.2939 30.4701 16.7631 30.9485 17.3611 31.2981C17.9499 31.6477 18.6123 31.8225 19.3391 31.8225C20.0659 31.8225 20.7467 31.6477 21.3355 31.2981C21.9243 30.9485 22.4027 30.4793 22.7523 29.8813C23.1019 29.2925 23.2767 28.6301 23.2767 27.9033C23.2767 27.1765 23.1019 26.5141 22.7523 25.9253C22.4027 25.3365 21.9335 24.8765 21.3355 24.5269ZM21.2343 29.0717C21.0503 29.4121 20.8019 29.6789 20.4707 29.8721C20.1395 30.0653 19.7623 30.1573 19.3391 30.1573C18.9159 30.1573 18.5479 30.0653 18.2259 29.8721C17.8947 29.6789 17.6463 29.4121 17.4623 29.0717C17.2783 28.7313 17.1863 28.3357 17.1863 27.9033C17.1863 27.4709 17.2783 27.0845 17.4623 26.7441C17.6463 26.4129 17.8947 26.1461 18.2259 25.9529C18.5571 25.7597 18.9251 25.6677 19.3391 25.6677C19.7531 25.6677 20.1395 25.7597 20.4615 25.9529C20.7835 26.1461 21.0411 26.4037 21.2251 26.7441C21.4091 27.0753 21.5103 27.4617 21.5103 27.9033C21.5103 28.3449 21.4183 28.7313 21.2343 29.0717Z" fill="#AED000"/>
<path d="M6.22872 37.5819C5.68592 37.2323 5.06952 37.0575 4.39792 37.0575C3.83672 37.0575 3.33072 37.1771 2.87992 37.4255C2.57632 37.5911 2.31872 37.8027 2.09792 38.0511V34.0859H0.386719V44.7027H2.10712V43.8747C2.31872 44.1231 2.57632 44.3255 2.87072 44.4911C3.32152 44.7395 3.82752 44.8591 4.39792 44.8591C5.06952 44.8591 5.68592 44.6843 6.22872 44.3439C6.77152 44.0035 7.20392 43.5343 7.52592 42.9455C7.83872 42.3567 8.00432 41.7035 8.00432 40.9675C8.00432 40.2315 7.84792 39.5691 7.52592 38.9803C7.20392 38.3915 6.78072 37.9223 6.22872 37.5727V37.5819ZM5.96192 42.1451C5.77792 42.4855 5.52952 42.7523 5.21672 42.9455C4.89472 43.1387 4.53592 43.2307 4.11272 43.2307C3.68952 43.2307 3.33072 43.1387 3.00872 42.9455C2.68672 42.7523 2.43832 42.4855 2.26352 42.1451C2.08872 41.8047 1.99672 41.4091 1.99672 40.9583C1.99672 40.5075 2.08872 40.1119 2.26352 39.7715C2.43832 39.4311 2.68672 39.1643 3.00872 38.9711C3.33072 38.7779 3.69872 38.6859 4.11272 38.6859C4.52672 38.6859 4.89472 38.7779 5.21672 38.9711C5.52952 39.1643 5.78712 39.4311 5.96192 39.7715C6.14592 40.1119 6.23792 40.5075 6.23792 40.9583C6.23792 41.4091 6.14592 41.8047 5.96192 42.1451Z" fill="#AED000"/>
<path d="M14.6472 38.0512C14.4264 37.8028 14.178 37.5912 13.8744 37.4256C13.4328 37.1772 12.9268 37.0576 12.3564 37.0576C11.6756 37.0576 11.0684 37.2324 10.5256 37.582C9.9828 37.9316 9.5504 38.4008 9.2284 38.9896C8.9064 39.5784 8.75 40.2408 8.75 40.9768C8.75 41.7128 8.9064 42.366 9.2284 42.9548C9.5412 43.5436 9.9736 44.0036 10.5256 44.3532C11.0684 44.6936 11.6848 44.8684 12.3564 44.8684C12.9268 44.8684 13.442 44.7488 13.8836 44.5004C14.1872 44.3348 14.4356 44.1324 14.6472 43.884V44.712H16.3676V37.2232H14.6472V38.0604V38.0512ZM14.1688 42.596C13.7824 43.0192 13.2672 43.24 12.6324 43.24C12.2184 43.24 11.8504 43.148 11.5284 42.9548C11.2064 42.7616 10.958 42.4948 10.7832 42.1544C10.5992 41.814 10.5072 41.4184 10.5072 40.9676C10.5072 40.5168 10.5992 40.1212 10.7832 39.7808C10.9672 39.4404 11.2156 39.1736 11.5284 38.9804C11.8412 38.7872 12.2092 38.6952 12.6324 38.6952C13.0556 38.6952 13.4328 38.7872 13.7456 38.9804C14.0584 39.1736 14.3068 39.4404 14.4908 39.7808C14.6656 40.1212 14.7576 40.5168 14.7576 40.9676C14.7576 41.63 14.5644 42.182 14.1688 42.6052V42.596Z" fill="#AED000"/>
<path d="M19.4313 34.0859H17.7109V44.7027H19.4313V34.0859Z" fill="#AED000"/>
<path d="M23.7253 34.0859H22.0141V37.2139H20.2109V38.7687H22.0141V44.7027H23.7253V38.7687H25.5193V37.2139H23.7253V34.0859Z" fill="#AED000"/>
<path d="M28.2712 37.2139H26.5508V44.7027H28.2712V37.2139Z" fill="#AED000"/>
<path d="M27.4065 33.7734C27.1121 33.7734 26.8729 33.8746 26.6797 34.0678C26.4865 34.261 26.3945 34.5094 26.3945 34.8038C26.3945 35.0982 26.4865 35.3374 26.6797 35.5398C26.8729 35.733 27.1121 35.8342 27.4065 35.8342C27.7009 35.8342 27.9493 35.733 28.1425 35.5398C28.3265 35.3466 28.4277 35.0982 28.4277 34.8038C28.4277 34.5094 28.3357 34.2702 28.1425 34.0678C27.9585 33.8746 27.7101 33.7734 27.4065 33.7734Z" fill="#AED000"/>
<path d="M35.1257 37.214V38.0512C34.9049 37.8028 34.6565 37.5912 34.3529 37.4256C33.9113 37.1772 33.4053 37.0576 32.8349 37.0576C32.1541 37.0576 31.5469 37.2324 31.0041 37.582C30.4613 37.9316 30.0289 38.4008 29.7069 38.9896C29.3849 39.5784 29.2285 40.2408 29.2285 40.9768C29.2285 41.7128 29.3849 42.366 29.7069 42.9548C30.0197 43.5436 30.4521 44.0036 31.0041 44.3532C31.5469 44.6936 32.1633 44.8684 32.8349 44.8684C33.4053 44.8684 33.9205 44.7488 34.3621 44.5004C34.6657 44.3348 34.9141 44.1324 35.1257 43.884V44.712H36.8461V37.2232H35.1257V37.214ZM34.6473 42.596C34.2609 43.0192 33.7457 43.24 33.1109 43.24C32.6969 43.24 32.3289 43.148 32.0069 42.9548C31.6849 42.7616 31.4365 42.4948 31.2617 42.1544C31.0777 41.814 30.9857 41.4184 30.9857 40.9676C30.9857 40.5168 31.0777 40.1212 31.2617 39.7808C31.4457 39.4404 31.6941 39.1736 32.0069 38.9804C32.3197 38.7872 32.6877 38.6952 33.1109 38.6952C33.5341 38.6952 33.9113 38.7872 34.2241 38.9804C34.5369 39.1736 34.7853 39.4404 34.9693 39.7808C35.1441 40.1212 35.2361 40.5168 35.2361 40.9676C35.2361 41.63 35.0429 42.182 34.6473 42.6052V42.596Z" fill="#AED000"/>
</g>
</svg>
